<?xml version="1.0"?>
<svg version="1.1" xmlns="http://www.w3.org/2000/svg" width="100" height="45" style=""><path fill="#fff" d="M15.953125,17.09375q0-0.734375,0.1796875-1.0703125t0.515625-0.46875t0.8125-0.1015625t1.1171875,0.03125q1.625,0,3.28125,0.5t2.984375,1.4609375t2.140625,2.3671875t0.8125,3.234375q0,1.21875-0.3515625,2.3046875t-0.9921875,2.03125t-1.5,1.7265625t-1.890625,1.359375q0.421875,0.421875,1.09375,1.4921875t1.328125,2.28125t1.1640625,2.3515625t0.6015625,1.71875l-0.1875,0.28125q-0.421875,0.25-1.015625,0.265625q-0.28125,0-0.734375-0.0703125t-0.578125-0.4140625q-0.640625-1.796875-1.3984375-3.703125t-1.8671875-3.4375l0-0.03125q-0.390625,0.15625-0.7734375,0.3046875t-0.7734375,0.2734375q0.125,1.734375,0.2578125,3.4140625t0.1328125,3.3984375q0,0.21875-0.2109375,0.3515625t-0.4765625,0.2109375t-0.5390625,0.109375t-0.4453125,0.03125q-0.15625,0-0.4453125-0.03125t-0.5546875-0.109375t-0.4609375-0.2265625t-0.1953125-0.3984375q0-1.734375-0.078125-3.4609375t-0.171875-3.4453125q-0.484375-0.3125-0.484375-0.8125q0-0.390625,0.375-0.53125q-0.1875-3.296875-0.4296875-6.578125t-0.2421875-6.609375z M18.78125,16.609375q0.21875,3.390625,0.4921875,6.703125t0.5234375,6.703125q1.09375-0.3125,2.0390625-1.0859375t1.6328125-1.7421875t1.0703125-2.109375t0.3828125-2.265625q0-1.25-0.5-2.3984375t-1.328125-2.0078125q-0.84375-0.859375-1.9375-1.34375q-0.96875-0.421875-2.03125-0.421875l-0.28125,0z M30.99484375,33.3125q0-1.09375,0.2421875-2.578125t0.8203125-2.8125t1.5234375-2.2578125t2.3828125-0.9296875q1.34375,0,2.015625,0.7734375t0.671875,2.0859375q0,0.859375-0.3203125,1.8828125t-0.9140625,1.9375t-1.40625,1.5234375t-1.8125,0.609375l-0.40625-0.03125q0,0.421875,0.125,1.1328125t0.3671875,1.4140625t0.625,1.234375t0.9296875,0.53125q0.796875,0,1.53125-0.640625t1.390625-1.421875t1.21875-1.421875t1.03125-0.640625q0.25,0,0.515625,0.078125t0.296875,0.4375q0,0.21875-0.1171875,0.359375t-0.2109375,0.3125q-0.484375,0.828125-1.0546875,1.578125t-1.2890625,1.359375t-1.5703125,0.9609375t-1.8828125,0.3515625q-1.34375,0-2.234375-0.4765625t-1.4375-1.28125t-0.7890625-1.859375t-0.2421875-2.2109375z M33.79171875,32.125l0.4375,0.390625q0.3125,0.28125,0.625,0.125t0.5625-0.5703125t0.4609375-1.0234375t0.375-1.25t0.2421875-1.25t0.078125-1.015625l0-0.53125t-0.046875-0.5625t-0.1640625-0.4453125t-0.3671875-0.2265625q-0.078125-0.015625-0.140625-0.015625q-0.53125,0-0.90625,0.671875q-0.40625,0.75-0.65625,1.8203125t-0.359375,2.1953125t-0.140625,1.6875z M44.0521875,32.484375q0-1.21875,0.2578125-2.2109375t0.8203125-1.6796875t1.4765625-1.0703125t2.2265625-0.3828125q0.734375,0,1.5,0.1953125t1.3125,0.7265625q0-0.3125,0.0625-1.2890625t0.15625-2.2734375t0.1953125-2.71875t0.1796875-2.640625t0.140625-2.046875t0.09375-0.9375q0.15625-0.453125,0.578125-0.5390625t0.796875-0.0859375q0.984375,0,1.2109375,0.3125t0.2265625,1.25q0,3.421875-0.3046875,6.8125t-0.3046875,6.8125q0,2.203125,0.0859375,4.4296875t0.6171875,4.3828125l0.171875,0.15625l0.09375,0.28125l-0.234375,0.359375q-0.59375,0.375-1.375,0.375l-0.0625,0q-0.796875,0-1.46875-0.375q-0.25-0.15625-0.4140625-0.9296875t-0.2578125-1.703125t-0.140625-1.7890625t-0.078125-1.21875q-0.546875,1.25-1.4921875,2.1484375t-2.3828125,0.8984375q-1.125,0-1.84375-0.484375t-1.1171875-1.234375t-0.5625-1.6796875t-0.1640625-1.8515625z M45.9428125,32.578125q0,0.359375,0.0859375,1.0625t0.2734375,1.40625t0.5234375,1.25t0.8828125,0.546875q0.734375-0.359375,1.328125-1.1953125t1.0234375-1.84375t0.671875-2.015625t0.2421875-1.7421875q0-0.921875-0.671875-1.53125t-1.609375-0.609375q-0.28125,0-0.5703125,0.109375t-0.5390625,0.25q-0.578125,0.546875-0.8984375,0.9921875t-0.484375,0.921875t-0.2109375,1.0546875t-0.046875,1.34375z M58.53140625,32.96875q0-0.890625,0.2265625-1.8359375t0.71875-1.703125t1.2421875-1.234375t1.8125-0.4765625q0.796875,0,1.6796875,0.2734375t1.6171875,0.78125t1.1953125,1.2421875t0.4609375,1.640625q0,1.09375-0.3984375,2.078125t-1.1171875,1.7578125t-1.6796875,1.21875t-2.0859375,0.4453125q-0.921875,0-1.609375-0.3359375t-1.1484375-0.8984375t-0.6875-1.328125t-0.2265625-1.625z M60.82828125,32.9375q0,0.28125,0.0859375,0.828125t0.2578125,1.0703125t0.4453125,0.90625t0.6640625,0.3515625q0.828125-0.09375,1.3671875-0.5390625t0.875-1.0859375t0.46875-1.390625t0.1328125-1.421875q0-0.859375-0.3359375-1.4375t-1.1015625-0.9375q0,0.03125,0.03125,0.03125t0.03125-0.03125l-0.390625-0.09375q-0.15625-0.0625-0.3828125-0.140625t-0.4453125-0.34375q-0.609375,0.21875-0.9453125,0.5625t-0.5078125,0.8359375t-0.2109375,1.1796875t-0.0390625,1.65625z M70.37,28.296875q0-0.640625,0.2265625-1.078125t0.9609375-0.4375q0.28125,0,0.703125,0.0859375t0.484375,0.4296875q0.15625,0.921875,0.171875,2t0.109375,2.03125q0.359375-0.703125,0.921875-1.515625t1.28125-1.5t1.5625-1.140625t1.71875-0.453125q0.0625,0,0.234375,0.046875t0.3203125,0.1328125t0.1796875,0.1953125t-0.171875,0.203125q-0.0625,0.1875-0.265625,0.2265625t-0.359375,0.0390625q-0.09375,0-0.296875-0.078125q-1.15625,0.609375-1.96875,1.65625t-1.328125,2.3203125t-0.75,2.6875t-0.234375,2.7578125q0,0.671875-0.3046875,0.8125t-0.9765625,0.140625q-0.359375,0-0.7578125-0.078125t-0.5546875-0.5q-0.28125-0.890625-0.4609375-2.046875t-0.2734375-2.3828125t-0.1328125-2.4140625t-0.0390625-2.140625z M81.47421875,32.296875q0-1.4375,0.3359375-2.8203125t0.5703125-2.7578125q0.0625-0.359375,0.4921875-0.4453125t0.7265625-0.0859375q0.515625,0,0.828125,0.15625q0.125,0.0625,0.234375,0.140625t0.109375,0.203125q0,1.34375-0.3203125,2.625t-0.3203125,2.71875q0,0.484375,0.0703125,0.9140625t0.1328125,0.8515625l0.09375,0.453125q0,0.125,0.015625,0.21875t0.046875,0.21875q0,0.28125-0.3984375,0.3828125t-0.6953125,0.1015625q-0.453125,0-0.8359375-0.1796875t-0.6015625-0.6171875l-0.21875-0.453125q-0.1875-0.359375-0.1875-0.8046875t-0.078125-0.8203125z M82.47421875,22.890625l0-0.296875q0-0.734375,0.3671875-1.3125t1.1015625-0.578125q0.09375,0,0.1796875,0.015625t0.1796875,0.015625q0.1875,0.03125,0.4921875,0.1484375t0.3046875,0.3671875l0,0.03125q-0.0625,0.125-0.078125,0.2578125t-0.078125,0.2265625l0.03125-0.03125q-0.1875,0.484375-0.3046875,0.78125t-0.2578125,0.4765625t-0.3515625,0.2578125t-0.6015625,0.078125q-0.0625,0-0.21875-0.015625t-0.3359375-0.0625t-0.3046875-0.125t-0.125-0.234375z M88.2971875,28.640625q0-0.640625,0.375-1.1015625t0.9140625-0.75t1.1796875-0.4296875t1.1875-0.140625q0.421875,0,1.125,0.125t1.375,0.375t1.1640625,0.65625t0.4921875,0.953125q0,0.25-0.1875,0.4453125t-0.390625,0.1953125q-0.421875,0-0.765625-0.2734375t-0.7109375-0.578125t-0.8046875-0.578125t-0.984375-0.2734375t-0.9921875,0.3515625t-0.4453125,0.9296875q0,0.953125,0.671875,1.8671875t1.4765625,1.921875t1.4765625,2.1171875t0.671875,2.453125q0,0.578125-0.2421875,0.9765625t-0.640625,0.6484375t-0.8984375,0.3828125t-0.96875,0.1328125q-0.515625,0-1.203125-0.2421875t-1.296875-0.640625t-1.0234375-0.9296875t-0.4140625-1.109375q0-0.28125,0.3984375-0.359375t0.5859375-0.078125q0.09375,0,0.2890625,0.0625t0.3828125,0.140625t0.3359375,0.171875t0.1171875,0.203125q0.15625,0.1875,0.4765625,0.5546875t0.640625,0.59375t0.5625,0.1640625t0.2421875-0.703125q0-1.21875-0.65625-2.2421875t-1.4296875-2t-1.4296875-1.9375t-0.65625-2.0546875z"/><path fill="#" d=""/></svg>
